<?xml version="1.0" encoding="UTF-8" standalone="no"?><!-- Generator: Gravit.io --><svg xmlns="http://www.w3.org/2000/svg" xmlns:xlink="http://www.w3.org/1999/xlink" style="isolation:isolate" viewBox="50 50 700 700" width="700pt" height="700pt"><g><path d=" M 750 361.111 L 750 283.333 L 672.222 283.333 L 672.222 205.556 C 672.222 162.778 637.222 127.778 594.444 127.778 L 516.667 127.778 L 516.667 50 L 438.889 50 L 438.889 127.778 L 361.111 127.778 L 361.111 50 L 283.333 50 L 283.333 127.778 L 205.556 127.778 C 162.778 127.778 127.778 162.778 127.778 205.556 L 127.778 283.333 L 50 283.333 L 50 361.111 L 127.778 361.111 L 127.778 438.889 L 50 438.889 L 50 516.667 L 127.778 516.667 L 127.778 594.444 C 127.778 637.222 162.778 672.222 205.556 672.222 L 283.333 672.222 L 283.333 750 L 361.111 750 L 361.111 672.222 L 438.889 672.222 L 438.889 750 L 516.667 750 L 516.667 672.222 L 594.444 672.222 C 637.222 672.222 672.222 637.222 672.222 594.444 L 672.222 516.667 L 750 516.667 L 750 438.889 L 672.222 438.889 L 672.222 361.111 L 750 361.111 Z  M 233.665 175.815 L 566.335 175.815 C 600.81 175.815 628.798 203.803 628.798 238.277 L 628.798 561.723 C 628.798 596.197 600.81 624.185 566.335 624.185 L 233.665 624.185 C 199.19 624.185 171.202 596.197 171.202 561.723 L 171.202 238.277 C 171.202 203.803 199.19 175.815 233.665 175.815 Z " fill-rule="evenodd" fill="rgb(157,36,73)"/><path d=" M 201.415 321.875 L 227.043 321.875 L 276.233 444.643 L 325.423 321.875 L 351.155 321.875 L 351.155 472.338 L 331.313 472.338 L 331.313 413.744 L 333.174 350.5 L 283.777 472.338 L 268.586 472.338 L 219.293 350.81 L 221.256 413.744 L 221.256 472.338 L 201.415 472.338 L 201.415 321.875 L 201.415 321.875 Z  M 472.476 361.144 L 472.476 361.144 L 472.476 361.144 Q 472.476 372.408 466.534 381.192 L 466.534 381.192 L 466.534 381.192 Q 460.592 389.976 450.464 394.936 L 450.464 394.936 L 450.464 394.936 Q 462.245 400 469.117 409.714 L 469.117 409.714 L 469.117 409.714 Q 475.989 419.428 475.989 431.725 L 475.989 431.725 L 475.989 431.725 Q 475.989 451.257 462.813 462.831 L 462.813 462.831 L 462.813 462.831 Q 449.638 474.405 428.143 474.405 L 428.143 474.405 L 428.143 474.405 Q 406.442 474.405 393.369 462.779 L 393.369 462.779 L 393.369 462.779 Q 380.297 451.153 380.297 431.725 L 380.297 431.725 L 380.297 431.725 Q 380.297 419.531 386.962 409.714 L 386.962 409.714 L 386.962 409.714 Q 393.627 399.897 405.408 394.833 L 405.408 394.833 L 405.408 394.833 Q 395.384 389.873 389.597 381.089 L 389.597 381.089 L 389.597 381.089 Q 383.81 372.305 383.81 361.144 L 383.81 361.144 L 383.81 361.144 Q 383.81 342.13 396.004 330.969 L 396.004 330.969 L 396.004 330.969 Q 408.198 319.808 428.143 319.808 L 428.143 319.808 L 428.143 319.808 Q 447.984 319.808 460.23 330.969 L 460.23 330.969 L 460.23 330.969 Q 472.476 342.13 472.476 361.144 Z  M 456.871 431.312 L 456.871 431.312 L 456.871 431.312 Q 456.871 418.705 448.863 410.747 L 448.863 410.747 L 448.863 410.747 Q 440.854 402.79 427.936 402.79 L 427.936 402.79 L 427.936 402.79 Q 415.019 402.79 407.217 410.644 L 407.217 410.644 L 407.217 410.644 Q 399.414 418.498 399.414 431.312 L 399.414 431.312 L 399.414 431.312 Q 399.414 444.126 407.01 451.463 L 407.01 451.463 L 407.01 451.463 Q 414.605 458.8 428.143 458.8 L 428.143 458.8 L 428.143 458.8 Q 441.577 458.8 449.224 451.412 L 449.224 451.412 L 449.224 451.412 Q 456.871 444.023 456.871 431.312 Z  M 428.143 335.516 L 428.143 335.516 L 428.143 335.516 Q 416.879 335.516 409.903 342.491 L 409.903 342.491 L 409.903 342.491 Q 402.928 349.467 402.928 361.454 L 402.928 361.454 L 402.928 361.454 Q 402.928 372.925 409.8 380.004 L 409.8 380.004 L 409.8 380.004 Q 416.672 387.083 428.143 387.083 L 428.143 387.083 L 428.143 387.083 Q 439.614 387.083 446.486 380.004 L 446.486 380.004 L 446.486 380.004 Q 453.358 372.925 453.358 361.454 L 453.358 361.454 L 453.358 361.454 Q 453.358 349.983 446.227 342.75 L 446.227 342.75 L 446.227 342.75 Q 439.097 335.516 428.143 335.516 Z  M 524.146 400.827 L 508.851 396.9 L 516.499 321.875 L 593.59 321.875 L 593.59 339.546 L 532.723 339.546 L 528.176 380.572 L 528.176 380.572 Q 539.233 374.062 553.288 374.062 L 553.288 374.062 L 553.288 374.062 Q 573.852 374.062 585.943 387.651 L 585.943 387.651 L 585.943 387.651 Q 598.034 401.24 598.034 424.388 L 598.034 424.388 L 598.034 424.388 Q 598.034 447.64 585.478 461.022 L 585.478 461.022 L 585.478 461.022 Q 572.922 474.405 550.394 474.405 L 550.394 474.405 L 550.394 474.405 Q 530.449 474.405 517.842 463.347 L 517.842 463.347 L 517.842 463.347 Q 505.235 452.29 503.478 432.759 L 503.478 432.759 L 521.562 432.759 L 521.562 432.759 Q 523.319 445.676 530.759 452.238 L 530.759 452.238 L 530.759 452.238 Q 538.2 458.8 550.394 458.8 L 550.394 458.8 L 550.394 458.8 Q 563.725 458.8 571.32 449.707 L 571.32 449.707 L 571.32 449.707 Q 578.916 440.613 578.916 424.595 L 578.916 424.595 L 578.916 424.595 Q 578.916 409.507 570.7 400.362 L 570.7 400.362 L 570.7 400.362 Q 562.485 391.216 548.844 391.216 L 548.844 391.216 L 548.844 391.216 Q 536.34 391.216 529.209 396.693 L 529.209 396.693 L 524.146 400.827 L 524.146 400.827 Z " fill="rgb(157,36,73)"/></g></svg>